# xmcd
#
# Track frame offsets: 
#        150
#        13053
#        26263
#        39722
#        52505
#        65923
#        79176
#        91026
#        102370
#        115107
#        126657
#        138305
#        151076
#        160962
#
# Disc length: 2298 seconds
#
# Revision: 0
# Processed by: cddbd v1.5.2PL0 Copyright (c) Steve Scherf et al.
# Submitted via: ExactAudioCopyFreeDBPlugin 1.0
#
DISCID=ad08f80e
DTITLE=Robert Johnson - Me And The Devil Blues
DYEAR=2004
DGENRE=Blues
TTITLE0=32-20 Blues
TTITLE1=I Believe I'll Dust My Broom
TTITLE2=Sweet Home Chicago
TTITLE3=Ramblin' On My Mind
TTITLE4=Terraplane Blues
TTITLE5=They're Red Hot
TTITLE6=Phonograph Blues
TTITLE7=Walkin' Blues
TTITLE8=Preachin' Blues
TTITLE9=If I Had Possession Over Judgement Day
TTITLE10=I'm A Steady Rollin' Man
TTITLE11=Kind Hearted Woman Blues
TTITLE12=Little Queen Of Spades
TTITLE13=Me And The Devil Blues
EXTD=
EXTT0=
EXTT1=
EXTT2=
EXTT3=
EXTT4=
EXTT5=
EXTT6=
EXTT7=
EXTT8=
EXTT9=
EXTT10=
EXTT11=
EXTT12=
EXTT13=
PLAYORDER=
